ffmpeg started on 2025-06-07 at 18:20:01
Report written to "D:\Convert\FFMetrics\reports\ssim_report-6.txt"
Log level: 32
Command line:
ffmpeg -hide_banner -nostdin -i "G:\\\xc0\xed\xe8\xec\xe5\\\xce\xed\xe3\xee\xe8\xed\xe3\xe8\\!_36_\xce\xf1\xe5\xed\xfc_2024\\DreamCast\\\xdf \xf1\xf2\xe0\xed\xf3 \xe7\xeb\xee\xe4\xe5\xe9\xea\xee\xe9, \xea\xee\xf2\xee\xf0\xe0\xff \xe2\xee\xe9\xe4\xb8\xf2 \xe2 \xe8\xf1\xf2\xee\xf0\xe8\xfe\\[DC] Rekishi ni Nokoru Akujo ni Naruzo - 07_Telegram_HEVC.mkv" -i "G:\\\xc0\xed\xe8\xec\xe5\\\xce\xed\xe3\xee\xe8\xed\xe3\xe8\\!_36_\xce\xf1\xe5\xed\xfc_2024\\DreamCast\\\xdf \xf1\xf2\xe0\xed\xf3 \xe7\xeb\xee\xe4\xe5\xe9\xea\xee\xe9, \xea\xee\xf2\xee\xf0\xe0\xff \xe2\xee\xe9\xe4\xb8\xf2 \xe2 \xe8\xf1\xf2\xee\xf0\xe8\xfe\\[DC] Rekishi ni Nokoru Akujo ni Naruzo - 07_Telegram.mp4" -lavfi "[0:v]settb=AVTB,setpts=PTS-STARTPTS,format=pix_fmts=yuv420p10,fps=24000/1001,scale=1920:1080:flags=bicubic[main];[1:v]settb=AVTB,setpts=PTS-STARTPTS,format=pix_fmts=yuv420p,fps=24000/1001,scale=1920:1080:flags=bicubic[ref];[main][ref]ssim=eof_action=endall:stats_file='D\\:/Convert/FFMetrics/logs/ssim_logfile-6.txt'" -f null -
Input #0, matroska,webm, from 'G:\Аниме\Онгоинги\!_36_Осень_2024\DreamCast\Я стану злодейкой, которая войдёт в историю\[DC] Rekishi ni Nokoru Akujo ni Naruzo - 07_Telegram_HEVC.mkv':
  Metadata:
    COMPATIBLE_BRANDS: isomiso2avc1mp41
    MAJOR_BRAND     : isom
    MINOR_VERSION   : 512
    ENCODER         : Lavf61.7.100
  Duration: 00:23:46.60, start: -0.021000, bitrate: 731 kb/s
  Stream #0:0: Video: hevc (Main 10), yuv420p10le(tv, bt709, progressive), 1920x1080 [SAR 1:1 DAR 16:9], 23.98 fps, 23.98 tbr, 1k tbn (default)
      Metadata:
        HANDLER_NAME    : VideoHandler
        VENDOR_ID       : [0][0][0][0]
        ENCODER         : Lavc61.19.100 libx265
        BPS             : 534204
        DURATION        : 00:23:46.508708333
        NUMBER_OF_FRAMES: 34202
        NUMBER_OF_BYTES : 95255961
        _STATISTICS_WRITING_APP: mkvpropedit v66.0.0 ('Josie') 64-bit
        _STATISTICS_WRITING_DATE_UTC: 2025-06-06 10:40:29
        _STATISTICS_TAGS: BPS DURATION NUMBER_OF_FRAMES NUMBER_OF_BYTES
  Stream #0:1: Audio: aac (LC), 48000 Hz, stereo, fltp (default)
      Metadata:
        HANDLER_NAME    : SoundHandler
        VENDOR_ID       : [0][0][0][0]
        ENCODER         : Lavc61.19.100 aac
        BPS             : 193125
        DURATION        : 00:23:46.602000000
        NUMBER_OF_FRAMES: 66873
        NUMBER_OF_BYTES : 34439138
        _STATISTICS_WRITING_APP: mkvpropedit v66.0.0 ('Josie') 64-bit
        _STATISTICS_WRITING_DATE_UTC: 2025-06-06 10:40:29
        _STATISTICS_TAGS: BPS DURATION NUMBER_OF_FRAMES NUMBER_OF_BYTES
Input #1, mov,mp4,m4a,3gp,3g2,mj2, from 'G:\Аниме\Онгоинги\!_36_Осень_2024\DreamCast\Я стану злодейкой, которая войдёт в историю\[DC] Rekishi ni Nokoru Akujo ni Naruzo - 07_Telegram.mp4':
  Metadata:
    major_brand     : isom
    minor_version   : 512
    compatible_brands: isomiso2avc1mp41
    encoder         : Lavf61.1.100
  Duration: 00:23:46.57, start: 0.000000, bitrate: 3245 kb/s
  Stream #1:0[0x1](und): Video: h264 (High) (avc1 / 0x31637661), yuv420p(tv, bt709, progressive), 1920x1080 [SAR 1:1 DAR 16:9], 3098 kb/s, 23.98 fps, 23.98 tbr, 24k tbn (default)
      Metadata:
        handler_name    : VideoHandler
        vendor_id       : [0][0][0][0]
        encoder         : Lavc61.3.100 h264_qsv
  Stream #1:1[0x2](und): Audio: aac (HE-AACv2) (mp4a / 0x6134706D), 48000 Hz, stereo, fltp, 144 kb/s (default)
      Metadata:
        handler_name    : SoundHandler
        vendor_id       : [0][0][0][0]
Stream mapping:
  Stream #0:0 (hevc) -> settb:default
  Stream #1:0 (h264) -> settb:default
  ssim:default -> Stream #0:0 (wrapped_avframe)
  Stream #0:1 -> #0:1 (aac (native) -> pcm_s16le (native))
Output #0, null, to 'pipe:':
  Metadata:
    COMPATIBLE_BRANDS: isomiso2avc1mp41
    MAJOR_BRAND     : isom
    MINOR_VERSION   : 512
    encoder         : Lavf61.7.100
  Stream #0:0: Video: wrapped_avframe, yuv420p10le(tv, bt709, progressive), 1920x1080 [SAR 1:1 DAR 16:9], q=2-31, 200 kb/s, 23.98 fps, 23.98 tbn
      Metadata:
        encoder         : Lavc61.19.100 wrapped_avframe
  Stream #0:1: Audio: pcm_s16le, 48000 Hz, stereo, s16, 1536 kb/s (default)
      Metadata:
        HANDLER_NAME    : SoundHandler
        VENDOR_ID       : [0][0][0][0]
        _STATISTICS_TAGS: BPS DURATION NUMBER_OF_FRAMES NUMBER_OF_BYTES
        BPS             : 193125
        DURATION        : 00:23:46.602000000
        NUMBER_OF_FRAMES: 66873
        NUMBER_OF_BYTES : 34439138
        _STATISTICS_WRITING_APP: mkvpropedit v66.0.0 ('Josie') 64-bit
        _STATISTICS_WRITING_DATE_UTC: 2025-06-06 10:40:29
        encoder         : Lavc61.19.100 pcm_s16le
frame=  176 fps=0.0 q=-0.0 size=N/A time=00:00:07.34 bitrate=N/A speed=14.1x    frame=  387 fps=376 q=-0.0 size=N/A time=00:00:16.14 bitrate=N/A speed=15.7x    frame=  669 fps=431 q=-0.0 size=N/A time=00:00:27.90 bitrate=N/A speed=  18x    frame=  887 fps=431 q=-0.0 size=N/A time=00:00:36.99 bitrate=N/A speed=  18x    frame= 1161 fps=449 q=-0.0 size=N/A time=00:00:48.42 bitrate=N/A speed=18.7x    frame= 1401 fps=453 q=-0.0 size=N/A time=00:00:58.43 bitrate=N/A speed=18.9x    frame= 1673 fps=464 q=-0.0 size=N/A time=00:01:09.77 bitrate=N/A speed=19.4x    frame= 1955 fps=474 q=-0.0 size=N/A time=00:01:21.53 bitrate=N/A speed=19.8x    frame= 2189 fps=472 q=-0.0 size=N/A time=00:01:31.29 bitrate=N/A speed=19.7x    frame= 2448 fps=474 q=-0.0 size=N/A time=00:01:42.10 bitrate=N/A speed=19.8x    frame= 2703 fps=477 q=-0.0 size=N/A time=00:01:52.73 bitrate=N/A speed=19.9x    frame= 2890 fps=467 q=-0.0 size=N/A time=00:02:00.53 bitrate=N/A speed=19.5x    frame= 3084 fps=460 q=-0.0 size=N/A time=00:02:08.62 bitrate=N/A speed=19.2x    frame= 3293 fps=456 q=-0.0 size=N/A time=00:02:17.34 bitrate=N/A speed=  19x    frame= 3504 fps=453 q=-0.0 size=N/A time=00:02:26.14 bitrate=N/A speed=18.9x    frame= 3713 fps=450 q=-0.0 size=N/A time=00:02:34.86 bitrate=N/A speed=18.8x    frame= 3879 fps=442 q=-0.0 size=N/A time=00:02:41.78 bitrate=N/A speed=18.5x    frame= 4096 fps=442 q=-0.0 size=N/A time=00:02:50.83 bitrate=N/A speed=18.4x    frame= 4294 fps=438 q=-0.0 size=N/A time=00:02:59.09 bitrate=N/A speed=18.3x    frame= 4484 fps=435 q=-0.0 size=N/A time=00:03:07.02 bitrate=N/A speed=18.1x    frame= 4670 fps=431 q=-0.0 size=N/A time=00:03:14.77 bitrate=N/A speed=  18x    frame= 4918 fps=434 q=-0.0 size=N/A time=00:03:25.12 bitrate=N/A speed=18.1x    frame= 5139 fps=433 q=-0.0 size=N/A time=00:03:34.33 bitrate=N/A speed=18.1x    frame= 5382 fps=435 q=-0.0 size=N/A time=00:03:44.47 bitrate=N/A speed=18.1x    frame= 5631 fps=437 q=-0.0 size=N/A time=00:03:54.85 bitrate=N/A speed=18.2x    frame= 5882 fps=439 q=-0.0 size=N/A time=00:04:05.32 bitrate=N/A speed=18.3x    frame= 6146 fps=442 q=-0.0 size=N/A time=00:04:16.33 bitrate=N/A speed=18.4x    frame= 6393 fps=443 q=-0.0 size=N/A time=00:04:26.64 bitrate=N/A speed=18.5x    frame= 6633 fps=444 q=-0.0 size=N/A time=00:04:36.65 bitrate=N/A speed=18.5x    frame= 6906 fps=446 q=-0.0 size=N/A time=00:04:48.03 bitrate=N/A speed=18.6x    frame= 7176 fps=449 q=-0.0 size=N/A time=00:04:59.29 bitrate=N/A speed=18.7x    frame= 7420 fps=450 q=-0.0 size=N/A time=00:05:09.47 bitrate=N/A speed=18.8x    frame= 7659 fps=450 q=-0.0 size=N/A time=00:05:19.44 bitrate=N/A speed=18.8x    frame= 7921 fps=452 q=-0.0 size=N/A time=00:05:30.37 bitrate=N/A speed=18.8x    frame= 8191 fps=454 q=-0.0 size=N/A time=00:05:41.63 bitrate=N/A speed=18.9x    frame= 8431 fps=454 q=-0.0 size=N/A time=00:05:51.64 bitrate=N/A speed=18.9x    frame= 8672 fps=454 q=-0.0 size=N/A time=00:06:01.69 bitrate=N/A speed=18.9x    frame= 8940 fps=456 q=-0.0 size=N/A time=00:06:12.87 bitrate=N/A speed=  19x    frame= 9178 fps=456 q=-0.0 size=N/A time=00:06:22.79 bitrate=N/A speed=  19x    frame= 9446 fps=457 q=-0.0 size=N/A time=00:06:33.97 bitrate=N/A speed=19.1x    frame= 9709 fps=459 q=-0.0 size=N/A time=00:06:44.94 bitrate=N/A speed=19.1x    frame= 9929 fps=458 q=-0.0 size=N/A time=00:06:54.12 bitrate=N/A speed=19.1x    frame=10161 fps=458 q=-0.0 size=N/A time=00:07:03.79 bitrate=N/A speed=19.1x    frame=10415 fps=459 q=-0.0 size=N/A time=00:07:14.39 bitrate=N/A speed=19.1x    frame=10673 fps=460 q=-0.0 size=N/A time=00:07:25.15 bitrate=N/A speed=19.2x    frame=10930 fps=461 q=-0.0 size=N/A time=00:07:35.87 bitrate=N/A speed=19.2x    frame=11188 fps=461 q=-0.0 size=N/A time=00:07:46.63 bitrate=N/A speed=19.2x    frame=11448 fps=462 q=-0.0 size=N/A time=00:07:57.47 bitrate=N/A speed=19.3x    frame=11670 fps=462 q=-0.0 size=N/A time=00:08:06.73 bitrate=N/A speed=19.3x    frame=11937 fps=463 q=-0.0 size=N/A time=00:08:17.87 bitrate=N/A speed=19.3x    frame=12210 fps=464 q=-0.0 size=N/A time=00:08:29.25 bitrate=N/A speed=19.4x    frame=12463 fps=465 q=-0.0 size=N/A time=00:08:39.81 bitrate=N/A speed=19.4x    frame=12712 fps=465 q=-0.0 size=N/A time=00:08:50.19 bitrate=N/A speed=19.4x    frame=12963 fps=465 q=-0.0 size=N/A time=00:09:00.66 bitrate=N/A speed=19.4x    frame=13237 fps=467 q=-0.0 size=N/A time=00:09:12.09 bitrate=N/A speed=19.5x    frame=13484 fps=467 q=-0.0 size=N/A time=00:09:22.39 bitrate=N/A speed=19.5x    frame=13761 fps=468 q=-0.0 size=N/A time=00:09:33.94 bitrate=N/A speed=19.5x    frame=14015 fps=468 q=-0.0 size=N/A time=00:09:44.54 bitrate=N/A speed=19.5x    frame=14267 fps=469 q=-0.0 size=N/A time=00:09:55.05 bitrate=N/A speed=19.5x    frame=14517 fps=469 q=-0.0 size=N/A time=00:10:05.47 bitrate=N/A speed=19.6x    frame=14779 fps=470 q=-0.0 size=N/A time=00:10:16.40 bitrate=N/A speed=19.6x    frame=15041 fps=470 q=-0.0 size=N/A time=00:10:27.33 bitrate=N/A speed=19.6x    frame=15305 fps=471 q=-0.0 size=N/A time=00:10:38.34 bitrate=N/A speed=19.6x    frame=15541 fps=471 q=-0.0 size=N/A time=00:10:48.18 bitrate=N/A speed=19.6x    frame=15813 fps=472 q=-0.0 size=N/A time=00:10:59.53 bitrate=N/A speed=19.7x    frame=16057 fps=472 q=-0.0 size=N/A time=00:11:09.71 bitrate=N/A speed=19.7x    frame=16336 fps=473 q=-0.0 size=N/A time=00:11:21.34 bitrate=N/A speed=19.7x    frame=16577 fps=472 q=-0.0 size=N/A time=00:11:31.39 bitrate=N/A speed=19.7x    frame=16815 fps=472 q=-0.0 size=N/A time=00:11:41.32 bitrate=N/A speed=19.7x    frame=17053 fps=472 q=-0.0 size=N/A time=00:11:51.25 bitrate=N/A speed=19.7x    frame=17320 fps=473 q=-0.0 size=N/A time=00:12:02.38 bitrate=N/A speed=19.7x    frame=17591 fps=474 q=-0.0 size=N/A time=00:12:13.69 bitrate=N/A speed=19.8x    frame=17871 fps=475 q=-0.0 size=N/A time=00:12:25.36 bitrate=N/A speed=19.8x    frame=18146 fps=475 q=-0.0 size=N/A time=00:12:36.83 bitrate=N/A speed=19.8x    frame=18406 fps=476 q=-0.0 size=N/A time=00:12:47.68 bitrate=N/A speed=19.8x    frame=18658 fps=476 q=-0.0 size=N/A time=00:12:58.19 bitrate=N/A speed=19.8x    frame=18928 fps=476 q=-0.0 size=N/A time=00:13:09.45 bitrate=N/A speed=19.9x    frame=19166 fps=476 q=-0.0 size=N/A time=00:13:19.38 bitrate=N/A speed=19.9x    frame=19441 fps=477 q=-0.0 size=N/A time=00:13:30.85 bitrate=N/A speed=19.9x    frame=19708 fps=478 q=-0.0 size=N/A time=00:13:41.98 bitrate=N/A speed=19.9x    frame=19986 fps=478 q=-0.0 size=N/A time=00:13:53.58 bitrate=N/A speed=19.9x    frame=20267 fps=479 q=-0.0 size=N/A time=00:14:05.30 bitrate=N/A speed=  20x    frame=20552 fps=480 q=-0.0 size=N/A time=00:14:17.18 bitrate=N/A speed=  20x    frame=20817 fps=480 q=-0.0 size=N/A time=00:14:28.24 bitrate=N/A speed=  20x    frame=21110 fps=481 q=-0.0 size=N/A time=00:14:40.46 bitrate=N/A speed=20.1x    frame=21370 fps=482 q=-0.0 size=N/A time=00:14:51.30 bitrate=N/A speed=20.1x    frame=21631 fps=482 q=-0.0 size=N/A time=00:15:02.19 bitrate=N/A speed=20.1x    frame=21892 fps=482 q=-0.0 size=N/A time=00:15:13.07 bitrate=N/A speed=20.1x    frame=22177 fps=483 q=-0.0 size=N/A time=00:15:24.96 bitrate=N/A speed=20.1x    frame=22443 fps=483 q=-0.0 size=N/A time=00:15:36.06 bitrate=N/A speed=20.2x    frame=22727 fps=484 q=-0.0 size=N/A time=00:15:47.90 bitrate=N/A speed=20.2x    frame=22995 fps=485 q=-0.0 size=N/A time=00:15:59.08 bitrate=N/A speed=20.2x    frame=23265 fps=485 q=-0.0 size=N/A time=00:16:10.34 bitrate=N/A speed=20.2x    frame=23536 fps=485 q=-0.0 size=N/A time=00:16:21.64 bitrate=N/A speed=20.2x    frame=23809 fps=486 q=-0.0 size=N/A time=00:16:33.03 bitrate=N/A speed=20.3x    frame=24073 fps=486 q=-0.0 size=N/A time=00:16:44.04 bitrate=N/A speed=20.3x    frame=24353 fps=487 q=-0.0 size=N/A time=00:16:55.72 bitrate=N/A speed=20.3x    frame=24599 fps=487 q=-0.0 size=N/A time=00:17:05.98 bitrate=N/A speed=20.3x    frame=24870 fps=487 q=-0.0 size=N/A time=00:17:17.28 bitrate=N/A speed=20.3x    frame=25138 fps=487 q=-0.0 size=N/A time=00:17:28.46 bitrate=N/A speed=20.3x    frame=25411 fps=488 q=-0.0 size=N/A time=00:17:39.85 bitrate=N/A speed=20.3x    frame=25682 fps=488 q=-0.0 size=N/A time=00:17:51.15 bitrate=N/A speed=20.4x    frame=25919 fps=488 q=-0.0 size=N/A time=00:18:01.03 bitrate=N/A speed=20.3x    frame=26172 fps=488 q=-0.0 size=N/A time=00:18:11.59 bitrate=N/A speed=20.4x    frame=26448 fps=488 q=-0.0 size=N/A time=00:18:23.10 bitrate=N/A speed=20.4x    frame=26728 fps=489 q=-0.0 size=N/A time=00:18:34.78 bitrate=N/A speed=20.4x    frame=27015 fps=489 q=-0.0 size=N/A time=00:18:46.75 bitrate=N/A speed=20.4x    frame=27263 fps=489 q=-0.0 size=N/A time=00:18:57.09 bitrate=N/A speed=20.4x    frame=27560 fps=490 q=-0.0 size=N/A time=00:19:09.48 bitrate=N/A speed=20.4x    frame=27819 fps=490 q=-0.0 size=N/A time=00:19:20.28 bitrate=N/A speed=20.5x    frame=28037 fps=490 q=-0.0 size=N/A time=00:19:29.37 bitrate=N/A speed=20.4x    frame=28272 fps=489 q=-0.0 size=N/A time=00:19:39.17 bitrate=N/A speed=20.4x    frame=28495 fps=489 q=-0.0 size=N/A time=00:19:48.47 bitrate=N/A speed=20.4x    frame=28725 fps=489 q=-0.0 size=N/A time=00:19:58.07 bitrate=N/A speed=20.4x    frame=28954 fps=488 q=-0.0 size=N/A time=00:20:07.62 bitrate=N/A speed=20.4x    frame=29181 fps=488 q=-0.0 size=N/A time=00:20:17.09 bitrate=N/A speed=20.3x    frame=29431 fps=488 q=-0.0 size=N/A time=00:20:27.51 bitrate=N/A speed=20.3x    frame=29651 fps=487 q=-0.0 size=N/A time=00:20:36.69 bitrate=N/A speed=20.3x    frame=29937 fps=488 q=-0.0 size=N/A time=00:20:48.62 bitrate=N/A speed=20.3x    frame=30181 fps=488 q=-0.0 size=N/A time=00:20:58.79 bitrate=N/A speed=20.3x    frame=30432 fps=488 q=-0.0 size=N/A time=00:21:09.26 bitrate=N/A speed=20.3x    frame=30683 fps=488 q=-0.0 size=N/A time=00:21:19.73 bitrate=N/A speed=20.3x    frame=30921 fps=487 q=-0.0 size=N/A time=00:21:29.66 bitrate=N/A speed=20.3x    frame=31175 fps=488 q=-0.0 size=N/A time=00:21:40.25 bitrate=N/A speed=20.3x    frame=31427 fps=487 q=-0.0 size=N/A time=00:21:50.76 bitrate=N/A speed=20.3x    frame=31621 fps=487 q=-0.0 size=N/A time=00:21:58.85 bitrate=N/A speed=20.3x    frame=31870 fps=487 q=-0.0 size=N/A time=00:22:09.24 bitrate=N/A speed=20.3x    frame=32104 fps=486 q=-0.0 size=N/A time=00:22:19.00 bitrate=N/A speed=20.3x    frame=32343 fps=486 q=-0.0 size=N/A time=00:22:28.97 bitrate=N/A speed=20.3x    frame=32580 fps=486 q=-0.0 size=N/A time=00:22:38.85 bitrate=N/A speed=20.3x    frame=32814 fps=486 q=-0.0 size=N/A time=00:22:48.61 bitrate=N/A speed=20.3x    frame=33084 fps=486 q=-0.0 size=N/A time=00:22:59.87 bitrate=N/A speed=20.3x    frame=33328 fps=486 q=-0.0 size=N/A time=00:23:10.05 bitrate=N/A speed=20.3x    frame=33567 fps=486 q=-0.0 size=N/A time=00:23:20.02 bitrate=N/A speed=20.3x    frame=33822 fps=486 q=-0.0 size=N/A time=00:23:30.65 bitrate=N/A speed=20.3x    frame=34096 fps=486 q=-0.0 size=N/A time=00:23:42.08 bitrate=N/A speed=20.3x    [Parsed_ssim_10 @ 000002132a788f00] SSIM Y:0.995394 (23.366664) U:0.994742 (22.791789) V:0.994840 (22.873841) All:0.995193 (23.181257)
[out#0/null @ 000002131da16540] video:14696KiB audio:267492KiB subtitle:0KiB other streams:0KiB global headers:0KiB muxing overhead: unknown
frame=34202 fps=486 q=-0.0 Lsize=N/A time=00:23:46.50 bitrate=N/A speed=20.3x    
